<svg width="1440" height="679" viewBox="0 0 1440 679" fill="none" xmlns="http://www.w3.org/2000/svg">
<g clip-path="url(#clip0_1_1786)">
<rect width="1440" height="677.58" transform="translate(0 0.470703)" fill="#990000"/>
<g opacity="0.5">
<g clip-path="url(#clip1_1_1786)">
<path fill-rule="evenodd" clip-rule="evenodd" d="M1231.91 -79.5247C1228.9 -79.4877 1225.89 -79.4506 1222.88 -79.4387C1163.41 -79.3012 1107.5 -56.448 1064.58 -14.9539L1062.62 -13.0355C1062.3 -12.7223 1061.97 -12.4139 1061.65 -12.1043C1059.09 -9.66349 1056.6 -7.29677 1055.31 -3.90327C1055.18 -2.89084 1055.1 -2.21071 1055.16 -1.54492C1055.29 -0.182267 1056.03 1.12302 1058.3 5.09863C1059.36 6.89475 1060.41 8.69853 1061.45 10.5098L1063.15 13.4754C1066.7 19.6182 1070.23 25.7793 1073.73 31.9585L1076 35.9724L1078.24 39.881L1080.33 43.5781C1082.68 47.6828 1084.42 51.172 1084.89 55.9185L1082.95 58.2255C1059.8 78.3713 1045.02 112.248 1038.27 141.468C1037.87 143.234 1037.48 144.999 1037.07 146.762C1033.87 158.76 1033.17 170.279 1033.12 182.614L1033.11 185.162C1032.99 208.552 1036.06 232.501 1045.04 254.266L1046.64 257.926C1057.44 283.189 1071.38 305.509 1091.45 324.371L1093.25 326.059C1106.87 339.15 1121.8 350.167 1138.8 358.437L1141.07 359.528C1154.35 366.05 1167.91 370.716 1182.26 374.328L1185.29 375.067C1202.26 379.217 1219.24 379.215 1236.64 378.802C1284.29 376.856 1331.62 354.173 1364.07 319.549L1365.79 317.692C1405.44 274.832 1417.18 226.094 1417.18 168.278H1306.02V103.731H1268.96V269.879H1306.02V205.333H1378.93L1378.89 205.562C1377.51 213.158 1376.24 220.144 1374.09 227.469L1373.18 230.434C1370.9 237.898 1368.59 245.235 1365.13 252.249L1363.39 255.536C1354.18 273.571 1342.93 289.489 1327.51 302.77L1323.95 305.739C1292.83 331.732 1255.64 341.775 1215.72 340.856C1178.9 339.374 1140.58 322.74 1115.13 295.71L1112.38 292.59C1082.74 259.277 1070.53 221.717 1071.4 177.472C1072.64 140.581 1088.45 103.2 1115.45 77.6445L1118.36 75.0435C1147.19 49.159 1181.86 32.6004 1221.16 32.7761C1223.78 32.806 1226.41 32.8347 1229.04 32.8311C1238.13 32.8036 1246.97 32.8884 1255.86 34.9886L1258.21 35.5982C1285.52 41.8031 1314.53 55.4165 1333.84 76.2628L1335.9 78.6295C1352.38 96.956 1366.14 117.478 1372.96 141.383L1375.35 150.348H1413.6C1413.6 119.971 1390.82 83.3426 1371.01 61.5963C1369.82 60.4141 1369.25 59.8559 1368.73 59.263C1368.25 58.7311 1367.81 58.1729 1366.98 57.1138C1365.9 54.2726 1365.58 52.8872 1366.63 49.9946L1368.04 47.5191L1369.63 44.685L1371.39 41.6501C1373.23 38.3773 1375.09 35.1117 1376.95 31.8533L1378.93 28.4263L1380.93 24.9671L1382.92 21.521C1384.2 19.2906 1385.49 17.0601 1386.78 14.8297C1389.77 9.73764 1392.65 4.6958 1395.1 -0.680713C1395.41 -2.38403 1395.55 -3.17055 1395.42 -3.91284C1395.32 -4.55113 1395.01 -5.15597 1394.45 -6.27956L1392.08 -8.62834C1363.15 -37.3816 1329.97 -58.498 1290.87 -70.4989L1287.19 -71.6058C1269.04 -77.1998 1250.87 -79.6502 1231.91 -79.5247ZM1341.73 19.9097C1345.24 14.1077 1348.41 8.72282 1350.25 2.12947C1279.02 -51.5508 1169.91 -64.7411 1100.43 2.12947V5.71541C1101.71 7.64584 1102.99 9.58703 1104.18 11.5736L1105.66 14.0969L1107.27 16.8402L1108.94 19.685C1110.53 22.3948 1112.12 25.1034 1113.71 27.8132L1114.77 29.6217C1117.61 28.2435 1120.38 26.7083 1123.06 25.0233C1162 0.220559 1209.47 -9.81051 1255.19 -2.27765L1259.4 -1.45646C1281.61 2.67334 1300.43 10.2074 1320.21 21.0525C1321.82 21.9358 1323.42 22.8144 1325.04 23.6893C1327.97 25.2755 1330.9 26.8677 1333.82 28.473L1335.9 29.6217C1337.29 27.335 1338.66 25.0436 1340.03 22.7486L1341.73 19.9097Z" fill="white"/>
<path d="M1213.98 131.224H1249.84V242.388H1213.98V131.224Z" fill="white"/>
<path d="M1249.84 70.2624C1251.03 71.4577 1251.03 71.4577 1251.17 74.9958L1251.15 79.6802L1251.15 82.1677C1251.14 84.7986 1251.12 87.4294 1251.11 90.0603L1251.09 95.3998C1251.08 99.7706 1251.06 104.142 1251.03 108.512C1249.74 108.327 1248.44 108.142 1247.14 107.955C1222.33 104.418 1198.47 104.922 1177.32 120.763C1160.84 134.215 1147.5 152.733 1144.65 174.255C1142.67 196.798 1147.21 218.4 1161.09 236.636C1175.8 253.951 1194.71 265.63 1217.63 267.712C1228.7 268.348 1238.76 266.804 1249.84 265.098V303.348C1215.67 308.23 1182.57 303.138 1154.33 282.569C1127.22 261.639 1112.59 233.347 1106.88 199.959C1105.44 187.383 1105.79 174.607 1108.79 162.301L1109.68 158.188C1117.02 127.028 1137.4 101.613 1164.08 84.3826C1189.3 69.4388 1221.05 62.4199 1249.84 70.2624Z" fill="white"/>
</g>
</g>
<g opacity="0.5">
<g clip-path="url(#clip2_1_1786)">
<path fill-rule="evenodd" clip-rule="evenodd" d="M219.009 214.897C214.98 214.946 210.953 214.996 206.924 215.012C127.342 215.196 52.5424 245.774 -4.88815 301.295L-7.51113 303.862C-7.94296 304.281 -8.37959 304.694 -8.81302 305.108C-12.2405 308.374 -15.5656 311.541 -17.2993 316.081C-17.4673 317.436 -17.5808 318.346 -17.496 319.237C-17.3249 321.06 -16.3285 322.807 -13.2945 328.126C-11.8728 330.529 -10.4685 332.943 -9.08172 335.366L-6.8106 339.335C-2.04934 347.554 2.66942 355.798 7.3455 364.066L10.3843 369.436L13.3848 374.666L16.1869 379.613C19.3217 385.105 21.6583 389.774 22.2789 396.125L19.6847 399.212C-11.2889 426.168 -31.0588 471.496 -40.1017 510.594C-40.627 512.956 -41.158 515.318 -41.6947 517.678C-45.9794 533.731 -46.9134 549.144 -46.9854 565.649L-46.995 569.058C-47.1645 600.354 -43.0525 632.399 -31.038 661.522L-28.9012 666.42C-14.4508 700.222 4.20112 730.087 31.0643 755.326L33.4746 757.584C51.6947 775.1 71.6725 789.842 94.4173 800.906L97.4497 802.366C115.23 811.093 133.364 817.337 152.576 822.17L156.627 823.158C179.328 828.711 202.049 828.708 225.331 828.156C289.091 825.553 352.421 795.201 395.835 748.874L398.133 746.388C451.199 689.039 466.906 623.827 466.906 546.466H318.164V460.1H268.583V682.413H318.164V596.047H415.726L415.67 596.354C413.821 606.518 412.123 615.865 409.242 625.666L408.028 629.634C404.981 639.62 401.892 649.437 397.258 658.822L394.934 663.221C382.6 687.352 367.553 708.651 346.921 726.422L342.155 730.395C300.521 765.175 250.753 778.612 197.336 777.383C148.072 775.399 96.7956 753.142 62.7432 716.976L59.0646 712.801C19.4112 668.227 3.06717 617.97 4.23471 558.769C5.89807 509.407 27.0419 459.39 63.1686 425.195L67.0615 421.715C105.643 387.081 152.04 364.925 204.615 365.16C208.13 365.2 211.644 365.238 215.161 365.233C227.319 365.196 239.148 365.31 251.054 368.12L254.189 368.936C290.739 377.238 329.547 395.453 355.386 423.346L358.148 426.513C380.193 451.035 398.603 478.495 407.729 510.48L410.928 522.476H462.108C462.108 481.829 431.629 432.82 405.13 403.722C403.529 402.14 402.773 401.393 402.069 400.6C401.437 399.888 400.849 399.142 399.732 397.725C398.282 393.923 397.864 392.069 399.261 388.199L401.149 384.886L403.275 381.094L405.629 377.033C408.095 372.654 410.578 368.285 413.078 363.925L415.726 359.34L418.399 354.711L421.062 350.1C422.779 347.115 424.5 344.131 426.221 341.147C430.22 334.333 434.082 327.587 437.361 320.393C437.767 318.114 437.956 317.062 437.788 316.068C437.646 315.214 437.239 314.405 436.486 312.902L433.319 309.759C394.61 271.286 350.208 243.031 297.89 226.974L292.974 225.493C268.686 218.008 244.375 214.729 219.009 214.897ZM365.945 347.944C370.643 340.181 374.889 332.975 377.341 324.153C282.036 252.327 136.051 234.678 43.0708 324.153V328.951C44.7918 331.534 46.4983 334.132 48.1009 336.79L50.0793 340.166L52.2353 343.837L54.4664 347.643C56.5936 351.269 58.7208 354.893 60.8447 358.519L62.2634 360.939C66.0706 359.095 69.7725 357.041 73.3519 354.786C125.464 321.599 188.973 308.177 250.152 318.256L255.788 319.355C285.5 324.881 310.69 334.962 337.152 349.473C339.301 350.655 341.453 351.83 343.609 353.001C347.535 355.124 351.455 357.254 355.367 359.402L358.148 360.939C359.999 357.879 361.841 354.813 363.678 351.742L365.945 347.944Z" fill="white"/>
<path d="M195.012 496.886H242.993V645.627H195.012V496.886Z" fill="white"/>
<path d="M242.993 415.318C244.592 416.918 244.592 416.918 244.773 421.652L244.747 427.92L244.741 431.248C244.731 434.768 244.712 438.288 244.692 441.809L244.669 448.953C244.651 454.801 244.625 460.65 244.592 466.498C242.857 466.251 241.122 466.002 239.386 465.753C206.183 461.02 174.255 461.694 145.963 482.89C123.905 500.89 106.054 525.667 102.248 554.464C99.5959 584.628 105.677 613.532 124.239 637.932C143.923 661.101 169.226 676.728 199.893 679.514C214.708 680.365 228.165 678.299 242.993 676.016V727.196C197.273 733.728 152.985 726.915 115.201 699.393C78.9239 671.388 59.3475 633.532 51.7105 588.857C49.7784 572.03 50.247 554.936 54.2663 538.47L55.453 532.967C65.278 491.273 92.5378 457.267 128.238 434.212C161.986 414.216 204.474 404.825 242.993 415.318Z" fill="white"/>
</g>
</g>
</g>
<defs>
<clipPath id="clip0_1_1786">
<rect width="1440" height="677.58" fill="white" transform="translate(0 0.470703)"/>
</clipPath>
<clipPath id="clip1_1_1786">
<rect width="384.891" height="459" fill="white" transform="translate(1033.11 -79.5293)"/>
</clipPath>
<clipPath id="clip2_1_1786">
<rect width="515" height="614.16" fill="white" transform="translate(-47 214.891)"/>
</clipPath>
</defs>
</svg>
